<svg width="16" height="16" version="1.1" xmlns="http://www.w3.org/2000/svg">
 <defs>
  <style id="current-color-scheme" type="text/css">.Color Scheme-Text { color:#444444; } .Color Scheme-Highlight { color:#4285f4; } .Color Scheme-NeutralText { color:#ff9800; } .Color Scheme-PositiveText { color:#4caf50; } .Color Scheme-NegativeText { color:#f44336; }</style>
 </defs>
 <path class="Color Scheme-Text" d="m1 0.9999996s-1 0-1 1.0000001v10c0 1 1 1 1 1h2l1 1h6l1-1v-2l-1 1h-5l-1-1h-2v-8.0000006h1v1.9999999h1v-1.9999999h1v1.9999999h1v-1.9999999h1v1.9999999h1.0000002v-1.9999999h1v1.9999999h0.9999998v-1.9999999h1v1.9999999h1v-1.9999999h1v6.0000006h2v-7.0000006c0-1.0000001-1-1.0000001-1-1.0000001z" style="fill:currentColor;opacity:.35"/>
 <circle transform="translate(.5 -.5)" cx="13.5" cy="12.5" r="2" style="fill:currentColor" class="Color Scheme-Highlight"/>
</svg>
