<svg xmlns="http://www.w3.org/2000/svg" width="16" height="16" version="1.1">
 <defs>
  <style id="current-color-scheme" type="text/css">
   .Color Scheme-Text { color:#444444; } .Color Scheme-Highlight { color:#4285f4; } .Color Scheme-NeutralText { color:#ff9800; } .Color Scheme-PositiveText { color:#4caf50; } .Color Scheme-NegativeText { color:#f44336; }
  </style>
 </defs>
 <path style="fill:currentColor" class="Color Scheme-Text" d="M 8,0 A 8,8 0 0 0 0,8 8,8 0 0 0 7.285156,15.949219 5,5 0 0 1 3,11 5,5 0 0 1 8,6 5,5 0 0 1 13,11 5,5 0 0 1 8.714844,15.949219 8,8 0 0 0 16,8 8,8 0 0 0 8,0 Z m 0,10 a 3,3 0 0 0 -3,3 3,3 0 0 0 3,3 3,3 0 0 0 3,-3 3,3 0 0 0 -3,-3 z"/>
</svg>
