<svg xmlns="http://www.w3.org/2000/svg" width="18" height="18" version="1.1">
 <defs>
  <style id="current-color-scheme" type="text/css">
   .Color Scheme-Text { color:#dfdfdf; } .Color Scheme-Highlight { color:#4285f4; } .Color Scheme-NeutralText { color:#ff9800; } .Color Scheme-PositiveText { color:#4caf50; } .Color Scheme-NegativeText { color:#f44336; }
  </style>
 </defs>
 <path style="opacity:.35;fill:currentColor" class="Color Scheme-Text" d="M 18,13 A 5,5 0 0 1 13,18 5,5 0 0 1 8,13 5,5 0 0 1 13,8 5,5 0 0 1 18,13 Z"/>
 <path style="opacity:0.7;fill:currentColor" class="Color Scheme-Text" d="M 13,8 A 5,5 0 0 0 8,13 5,5 0 0 0 13,18 5,5 0 0 0 18,13 5,5 0 0 0 13,8 Z M 13,9 A 4,4 0 0 1 17,13 4,4 0 0 1 13,17 4,4 0 0 1 9,13 4,4 0 0 1 13,9 Z"/>
 <path style="fill:currentColor" class="Color Scheme-Text" d="M 14,0 V 14 H 0 V 12 H 12 V 0 Z"/>
</svg>
