<svg xmlns="http://www.w3.org/2000/svg" width="22" height="22" version="1.1">
 <defs>
  <style id="current-color-scheme" type="text/css">
   .Color Scheme-Text { color:#dfdfdf; } .Color Scheme-Highlight { color:#4285f4; } .Color Scheme-NeutralText { color:#ff9800; } .Color Scheme-PositiveText { color:#4caf50; } .Color Scheme-NegativeText { color:#f44336; }
  </style>
 </defs>
 <rect style="fill:currentColor" class="Color Scheme-Text" width="7" height="2" x="3" y="17" rx=".538" ry=".5"/>
 <rect style="fill:currentColor;opacity:.35" class="Color Scheme-Text" width="7" height="2" x="3" y="15" rx=".538" ry=".5"/>
 <rect style="fill:currentColor" class="Color Scheme-Text" width="7" height="2" x="3" y="13" rx=".538" ry=".5"/>
 <rect style="fill:currentColor;opacity:.35" class="Color Scheme-Text" width="7" height="2" x="3" y="11" rx=".538" ry=".5"/>
 <rect style="fill:currentColor" class="Color Scheme-Text" width="7" height="2" x="3" y="9" rx=".538" ry=".5"/>
 <rect style="fill:currentColor;opacity:.35" class="Color Scheme-Text" width="7" height="2" x="3" y="7" rx=".538" ry=".5"/>
 <rect style="fill:currentColor" class="Color Scheme-Text" width="7" height="2" x="3" y="5" rx=".538" ry=".5"/>
 <rect style="fill:currentColor;opacity:.35" class="Color Scheme-Text" width="7" height="2" x="3" y="3" rx=".538" ry=".5"/>
 <rect style="fill:currentColor;opacity:.35" class="Color Scheme-Text" width="7" height="2" x="12" y="17" rx=".538" ry=".5"/>
 <rect style="fill:currentColor" class="Color Scheme-Text" width="7" height="2" x="12" y="15" rx=".538" ry=".5"/>
 <rect style="fill:currentColor;opacity:.35" class="Color Scheme-Text" width="7" height="2" x="12" y="13" rx=".538" ry=".5"/>
 <rect style="fill:currentColor" class="Color Scheme-Text" width="7" height="2" x="12" y="11" rx=".538" ry=".5"/>
</svg>
