<svg width="22" height="22" version="1.1" xmlns="http://www.w3.org/2000/svg">
 <defs>
  <style id="current-color-scheme" type="text/css">.Color Scheme-Text { color:#dfdfdf; } .Color Scheme-Highlight { color:#4285f4; } .Color Scheme-NeutralText { color:#ff9800; } .Color Scheme-PositiveText { color:#4caf50; } .Color Scheme-NegativeText { color:#f44336; }</style>
 </defs>
 <path class="Color Scheme-Text" d="m4.99989 5c-1.108 0-2 0.892-2 2v8c0 1.108 0.892 2 2 2h11c-1.645 0-3-1.355-3-3s1.355-3 3-3 3 1.355 3 3v-7c0-1.108-0.892-2-2-2h-12zm0 2 6 3 6-3v2l-6 3-6-3v-2z" style="fill:currentColor"/>
 <path class="Color Scheme-Highlight" d="m15.99989 12a2 2 0 0 0-2 2 2 2 0 0 0 2 2 2 2 0 0 0 2-2 2 2 0 0 0-2-2z" style="fill:currentColor"/>
</svg>
