<svg width="22" height="22" version="1.1" xmlns="http://www.w3.org/2000/svg">
 <defs>
  <style id="current-color-scheme" type="text/css">.Color Scheme-Text { color:#dfdfdf; } .Color Scheme-Highlight { color:#4285f4; } .Color Scheme-NeutralText { color:#ff9800; } .Color Scheme-PositiveText { color:#4caf50; } .Color Scheme-NegativeText { color:#f44336; }</style>
 </defs>
 <path class="Color Scheme-Text" d="m7 3v3h3v-3zm3 3v3h3v-3zm3 0h3v-3h-3zm3 0v3h3v-3zm0 3h-3v3h3zm0 3v3h3v-3zm0 3h-3v3h3zm-3 0v-3h-3v3zm-3 0h-3v3h3zm-3 0v-3h-3v3zm0-3h3v-3h-3zm0-3v-3h-3v3z" style="fill:currentColor"/>
</svg>
