<svg xmlns="http://www.w3.org/2000/svg" width="16" height="16" version="1.1">
 <defs>
  <style id="current-color-scheme" type="text/css">
   .Color Scheme-Text { color:#dfdfdf; } .Color Scheme-Highlight { color:#4285f4; } .Color Scheme-NeutralText { color:#ff9800; } .Color Scheme-PositiveText { color:#4caf50; } .Color Scheme-NegativeText { color:#f44336; }
  </style>
 </defs>
 <path style="fill:currentColor" class="Color Scheme-Text" d="M 6,1 C 5,1 5,2 5,2 H 2 C 2,2 1,2 1,3 V 4 H 14 V 3 C 14,2 13,2 13,2 H 10 C 10,2 10,1 9,1 Z M 2,5 C 2,5 1,7.5 1,10 1,12.5 2.48,15 3,15 H 12 C 12.52,15 14,12.5 14,10 14,7.5 13,5 13,5 Z"/>
</svg>
