<svg xmlns="http://www.w3.org/2000/svg" width="24" height="24" version="1.1">
 <defs>
  <style id="current-color-scheme" type="text/css">
   .Color Scheme-Text { color:#dfdfdf; } .Color Scheme-Highlight { color:#4285f4; } .Color Scheme-NeutralText { color:#ff9800; } .Color Scheme-PositiveText { color:#4caf50; } .Color Scheme-NegativeText { color:#f44336; }
  </style>
 </defs>
 <g transform="translate(1,1)">
  <path style="fill:currentColor" class="Color Scheme-Text" d="M 11,3 C 7.134,3 4,6.134 4,10 4,13.866 7.134,17 11,17 V 19 C 11,19 18,16 18,10 18,6.134 14.866,3 11,3 Z M 8,9 A 1,1 0 0 1 9,10 1,1 0 0 1 8,11 1,1 0 0 1 7,10 1,1 0 0 1 8,9 Z M 11,9 A 1,1 0 0 1 12,10 1,1 0 0 1 11,11 1,1 0 0 1 10,10 1,1 0 0 1 11,9 Z M 14,9 A 1,1 0 0 1 15,10 1,1 0 0 1 14,11 1,1 0 0 1 13,10 1,1 0 0 1 14,9 Z"/>
 </g>
</svg>
