<svg width="16" height="16" version="1.1" xmlns="http://www.w3.org/2000/svg">
 <defs>
  <style id="current-color-scheme" type="text/css">.Color Scheme-Text { color:#dfdfdf; } .Color Scheme-Highlight { color:#4285f4; } .Color Scheme-NeutralText { color:#ff9800; } .Color Scheme-PositiveText { color:#4caf50; } .Color Scheme-NegativeText { color:#f44336; }</style>
 </defs>
 <path class="Color Scheme-Text" d="m1 1.0000004s-1 0-1 1v9.9999996c0 1 1 1 1 1h2l1 1h7l1-1h2s1 0.13 1-1v-9.9999996c0-1-1-1-1-1zm1 2h1v2h1v-2h1v2h1v-2h1v2h1v-2h1v2h1v-2h1v2h1v-2h1v7.9999996h-2l-1 1h-5l-1-1h-2z" style="fill:currentColor"/>
</svg>
