<svg xmlns="http://www.w3.org/2000/svg" width="24" height="24" version="1.1">
 <defs>
  <style id="current-color-scheme" type="text/css">
   .Color Scheme-Text { color:#444444; } .Color Scheme-Highlight { color:#4285f4; } .Color Scheme-NeutralText { color:#ff9800; } .Color Scheme-PositiveText { color:#4caf50; } .Color Scheme-NegativeText { color:#f44336; }
  </style>
 </defs>
 <path style="fill:currentColor" class="Color Scheme-Text" d="M 11,4 6,9 H 3 v 6 h 3 l 5,5 z m 7,2 c -0.554,0 -1,0.446 -1,1 v 10 c 0,0.554 0.446,1 1,1 0.554,0 1,-0.446 1,-1 V 7 C 19,6.446 18.554,6 18,6 Z m -4,2 c -0.554,0 -1,0.446 -1,1 v 6 c 0,0.554 0.446,1 1,1 0.554,0 1,-0.446 1,-1 V 9 C 15,8.446 14.554,8 14,8 Z"/>
</svg>
