<svg xmlns="http://www.w3.org/2000/svg" width="24" height="24" version="1.1">
 <defs>
  <style id="current-color-scheme" type="text/css">
   .Color Scheme-Text { color:#444444; } .Color Scheme-Highlight { color:#4285f4; } .Color Scheme-NeutralText { color:#ff9800; } .Color Scheme-PositiveText { color:#4caf50; } .Color Scheme-NegativeText { color:#f44336; }
  </style>
 </defs>
 <g transform="translate(4,4)">
  <path style="fill:currentColor;opacity:.35" class="Color Scheme-Text" d="M 2,0 C 2,0 0,0 0,2 V 14 C 0,16 2,16 2,16 H 14 C 14,16 16,16 16,14 V 2 C 16,0 14,0 14,0 Z M 11.611,2 C 11.793,2 11.974,2.0709 12.119,2.2109 L 13.789,3.8809 C 14.069,4.1609 14.069,4.6106 13.789,4.8906 L 12.381,6.2891 9.7109,3.6094 11.109,2.2109 C 11.249,2.0709 11.43,2 11.611,2 Z M 8.75,4.5703 11.42,7.25 4.6699,14 H 2 V 11.32 Z"/>
 </g>
</svg>
