<svg xmlns="http://www.w3.org/2000/svg" width="24" height="24" viewBox="0 0 24 24">
 <defs>
  <style id="current-color-scheme" type="text/css">
   .Color Scheme-Text { color:#444444; } .Color Scheme-Highlight { color:#4285f4; } .Color Scheme-NeutralText { color:#ff9800; } .Color Scheme-PositiveText { color:#4caf50; } .Color Scheme-NegativeText { color:#f44336; }
  </style>
 </defs>
 <path style="fill:currentColor" class="Color Scheme-Text" d="m1 1v14h14v-14h-14zm2 2h2v2h-2v-2zm4 0h2v2h-2v-2zm4 0h2v2h-2v-2zm-8 4h2v2h-2v-2zm4 0h2v2h-2v-2zm4 0h2v2h-2v-2zm-8 4h2v2h-2v-2zm4 0h2v2h-2v-2zm4 0h2v2h-2v-2z" transform="translate(4 4)"/>
</svg>
