<svg xmlns="http://www.w3.org/2000/svg" width="24" height="24" version="1.1">
 <defs>
  <style id="current-color-scheme" type="text/css">
   .Color Scheme-Text { color:#444444; } .Color Scheme-Highlight { color:#4285f4; } .Color Scheme-NeutralText { color:#ff9800; } .Color Scheme-PositiveText { color:#4caf50; } .Color Scheme-NegativeText { color:#f44336; }
  </style>
 </defs>
 <path style="opacity:.35;fill:currentColor" class="Color Scheme-Text" d="M 10,10 H 23 V 23 H 10 Z M 17,10 A 7,7 0 0 1 10,17 7,7 0 0 1 3,10 7,7 0 0 1 10,3 7,7 0 0 1 17,10 Z"/>
 <path style="fill:currentColor" class="Color Scheme-Text" d="M 10 1 A 9 9 0 0 0 1 10 A 9 9 0 0 0 10 19 L 10 16 A 6 6 0 0 1 4 10 A 6 6 0 0 1 10 4 A 6 6 0 0 1 16 10 L 19 10 A 9 9 0 0 0 10 1 z"/>
 <path style="fill:currentColor" class="Color Scheme-Text" d="M 8,10 V 23 H 11 V 11 H 23 V 8 H 10 C 10,8 8,8 8,10 Z"/>
</svg>
