<svg xmlns="http://www.w3.org/2000/svg" width="24" height="24" version="1.1">
 <defs>
  <style id="current-color-scheme" type="text/css">
   .Color Scheme-Text { color:#444444; } .Color Scheme-Highlight { color:#4285f4; } .Color Scheme-NeutralText { color:#ff9800; } .Color Scheme-PositiveText { color:#4caf50; } .Color Scheme-NegativeText { color:#f44336; }
  </style>
 </defs>
 <g transform="translate(4,4)">
  <path style="fill:currentColor" class="Color Scheme-Text" d="M 8,13 V 9 H 5 L 10,2 15,9 H 12 V 13 Z M 4,11.5 A 1.5,1.5 0 0 1 2.5,13 1.5,1.5 0 0 1 1,11.5 1.5,1.5 0 0 1 2.5,10 1.5,1.5 0 0 1 4,11.5 Z M 4,7.5 A 1.5,1.5 0 0 1 2.5,9 1.5,1.5 0 0 1 1,7.5 1.5,1.5 0 0 1 2.5,6 1.5,1.5 0 0 1 4,7.5 Z M 4,3.5 A 1.5,1.5 0 0 1 2.5,5 1.5,1.5 0 0 1 1,3.5 1.5,1.5 0 0 1 2.5,2 1.5,1.5 0 0 1 4,3.5 Z"/>
 </g>
</svg>
