<svg xmlns="http://www.w3.org/2000/svg" width="18" height="18" version="1.1">
 <defs>
  <style id="current-color-scheme" type="text/css">
   .Color Scheme-Text { color:#444444; } .Color Scheme-Highlight { color:#4285f4; } .Color Scheme-NeutralText { color:#ff9800; } .Color Scheme-PositiveText { color:#4caf50; } .Color Scheme-NegativeText { color:#f44336; }
  </style>
 </defs>
 <path style="opacity:.35;fill:currentColor" class="Color Scheme-Text" d="M 14,5 A 5,5 0 0 1 9,10 5,5 0 0 1 4,5 5,5 0 0 1 9,0 5,5 0 0 1 14,5 Z"/>
 <path style="opacity:0.7;fill:currentColor" class="Color Scheme-Text" d="M 9,0 A 5,5 0 0 0 4,5 5,5 0 0 0 9,10 5,5 0 0 0 14,5 5,5 0 0 0 9,0 Z M 9,1 A 4,4 0 0 1 13,5 4,4 0 0 1 9,9 4,4 0 0 1 5,5 4,4 0 0 1 9,1 Z"/>
 <path style="fill:currentColor" class="Color Scheme-Text" d="M 0,4 H 18 V 6 H 0 Z"/>
</svg>
