<svg xmlns="http://www.w3.org/2000/svg" width="18" height="18" version="1.1">
 <defs>
  <style id="current-color-scheme" type="text/css">
   .Color Scheme-Text { color:#444444; } .Color Scheme-Highlight { color:#4285f4; } .Color Scheme-NeutralText { color:#ff9800; } .Color Scheme-PositiveText { color:#4caf50; } .Color Scheme-NegativeText { color:#f44336; }
  </style>
 </defs>
 <path style="opacity:.35;fill:currentColor" class="Color Scheme-Text" d="M 10,9 A 5,5 0 0 1 5,14 5,5 0 0 1 0,9 5,5 0 0 1 5,4 5,5 0 0 1 10,9 Z"/>
 <path style="opacity:0.7;fill:currentColor" class="Color Scheme-Text" d="M 5,4 A 5,5 0 0 0 0,9 5,5 0 0 0 5,14 5,5 0 0 0 10,9 5,5 0 0 0 5,4 Z M 5,5 A 4,4 0 0 1 9,9 4,4 0 0 1 5,13 4,4 0 0 1 1,9 4,4 0 0 1 5,5 Z"/>
 <path style="fill:currentColor" class="Color Scheme-Text" d="M 4,0 H 6 V 18 H 4 Z"/>
</svg>
