<svg xmlns="http://www.w3.org/2000/svg" width="22" height="22" version="1.1">
 <defs>
  <style id="current-color-scheme" type="text/css">
   .Color Scheme-Text { color:#444444; } .Color Scheme-Highlight { color:#4285f4; } .Color Scheme-NeutralText { color:#ff9800; } .Color Scheme-PositiveText { color:#4caf50; } .Color Scheme-NegativeText { color:#f44336; }
  </style>
 </defs>
 <path style="fill:currentColor" class="Color Scheme-Text" d="M 6,4 C 5.446,4 5,4.446 5,5 v 13 c 0,0.554 0.446,1 1,1 h 10 c 0.554,0 1,-0.446 1,-1 V 8 L 13,4 Z m 5,5 c 1.1,0 2,0.9 2,2 0,1.1 -0.9,2 -2,2 v 1 h -1 v -2 h 1 c 0.55,0 1,-0.45 1,-1 0,-0.55 -0.45,-1 -1,-1 -0.55,0 -1,0.45 -1,1 H 9 C 9,9.9 9.9,9 11,9 Z m -1,6 h 1 v 1 h -1 z"/>
</svg>
