<svg xmlns="http://www.w3.org/2000/svg" width="24" height="24" version="1.1">
 <defs>
  <style id="current-color-scheme" type="text/css">
   .Color Scheme-Text { color:#444444; } .Color Scheme-Highlight { color:#4285f4; } .Color Scheme-NeutralText { color:#ff9800; } .Color Scheme-PositiveText { color:#4caf50; } .Color Scheme-NegativeText { color:#f44336; }
  </style>
 </defs>
 <path style="fill:currentColor" class="Color Scheme-Text" d="m 17,10 h 1 v 3 h -1 z"/>
 <path style="fill:currentColor" class="Color Scheme-Text" d="m 6,10 h 1 v 3 H 6 Z"/>
 <path style="fill:currentColor" class="Color Scheme-Text" d="m 17,17 h 1 v 2 h -1 z"/>
 <path style="fill:currentColor" class="Color Scheme-Text" d="m 6,17 h 1 v 2 H 6 Z"/>
 <path style="fill:currentColor" class="Color Scheme-Text" d="M 5,5 C 4.446,5 4,5.446 4,6 v 4 c 0,0.554 0.446,1 1,1 h 14 c 0.554,0 1,-0.446 1,-1 V 6 C 20,5.446 19.554,5 19,5 Z m 12,2 a 1,1 0 0 1 1,1 1,1 0 0 1 -1,1 1,1 0 0 1 -1,-1 1,1 0 0 1 1,-1 z"/>
 <path style="fill:currentColor" class="Color Scheme-Text" d="m 5,12 c -0.554,0 -1,0.446 -1,1 v 4 c 0,0.554 0.446,1 1,1 h 14 c 0.554,0 1,-0.446 1,-1 v -4 c 0,-0.554 -0.446,-1 -1,-1 z m 12,2 a 1,1 0 0 1 1,1 1,1 0 0 1 -1,1 1,1 0 0 1 -1,-1 1,1 0 0 1 1,-1 z"/>
</svg>
