<svg xmlns="http://www.w3.org/2000/svg" width="24" height="24" version="1.1">
 <defs>
  <style id="current-color-scheme" type="text/css">
   .Color Scheme-Text { color:#444444; } .Color Scheme-Highlight { color:#4285f4; } .Color Scheme-NeutralText { color:#ff9800; } .Color Scheme-PositiveText { color:#4caf50; } .Color Scheme-NegativeText { color:#f44336; }
  </style>
 </defs>
 <path style="fill:currentColor" class="Color Scheme-Text" d="M 7,5 C 6,5 6,6 6,6 v 12 c 0,0 0,1 1,1 h 10 c 0,0 1,0 1,-1 V 6 c 0,0 0,-1 -1,-1 z m 5,2 c 2.21,0 4,1.79 4,4 0,2.21 -1.79,4 -4,4 H 8 V 11 C 8,8.79 9.79,7 12,7 Z m 0,2 c -1.1,0 -2,0.9 -2,2 0,1.1 0.9,2 2,2 1.1,0 2,-0.9 2,-2 0,-1.1 -0.9,-2 -2,-2 z"/>
</svg>
