<svg xmlns="http://www.w3.org/2000/svg" width="24" height="24" version="1.1">
 <defs>
  <style id="current-color-scheme" type="text/css">
   .Color Scheme-Text { color:#444444; } .Color Scheme-Highlight { color:#4285f4; } .Color Scheme-NeutralText { color:#ff9800; } .Color Scheme-PositiveText { color:#4caf50; } .Color Scheme-NegativeText { color:#f44336; }
  </style>
 </defs>
 <g transform="translate(4,4)">
  <path style="fill:currentColor" class="Color Scheme-Text" d="M 4 0 C 3 0 3 1 3 1 L 3 10 C 3 11 4 11 4 11 L 12 11 C 13 11 13 10 13 10 L 13 1 C 13 0 12 0 12 0 L 4 0 z M 5 2 L 11 2 L 11 4 L 5 4 L 5 2 z M 10 7 A 1 1 0 0 1 11 8 A 1 1 0 0 1 10 9 A 1 1 0 0 1 9 8 A 1 1 0 0 1 10 7 z M 7 12 L 7 13 L 5 13 L 5 16 L 11 16 L 11 13 L 9 13 L 9 12 L 7 12 z M 1 14 C 0 14 0 15 0 15 C 0 15 0 16 1 16 L 4 16 L 4 14 L 1 14 z M 12 14 L 12 16 L 15 16 C 16 16 16 15 16 15 C 16 15 16 14 15 14 L 12 14 z"/>
 </g>
</svg>
