<svg width="24" height="24" version="1.1" xmlns="http://www.w3.org/2000/svg">
 <defs>
  <style id="current-color-scheme" type="text/css">.Color Scheme-Text { color:#dfdfdf; } .Color Scheme-Highlight { color:#4285f4; } .Color Scheme-NeutralText { color:#ff9800; } .Color Scheme-PositiveText { color:#4caf50; } .Color Scheme-NegativeText { color:#f44336; }</style>
 </defs>
 <path class="Color Scheme-PositiveText success" d="m5 5v5h2v-5zm0 9v5h2v-5z" style="fill:currentColor"/>
 <path class="Color Scheme-Highlight" d="m9 5v8h2v-8zm0 12v2h2v-2z" style="fill:currentColor"/>
 <path class="Color Scheme-NeutralText warning" d="m13 5v4h2v-4zm0 8v6h2v-6z" style="fill:currentColor"/>
 <path class="Color Scheme-NegativeText error" d="m17 5v1h2v-1zm0 5v9h2v-9z" style="fill:currentColor"/>
 <path class="Color Scheme-Text" d="m16.5 7c-0.277 0-0.5 0.223-0.5 0.5v1c0 0.277 0.223 0.5 0.5 0.5h3c0.277 0 0.5-0.223 0.5-0.5v-1c0-0.277-0.223-0.5-0.5-0.5zm-4 3c-0.277 0-0.5 0.223-0.5 0.5v1c0 0.277 0.223 0.5 0.5 0.5h3c0.277 0 0.5-0.223 0.5-0.5v-1c0-0.277-0.223-0.5-0.5-0.5zm-8 1c-0.277 0-0.5 0.223-0.5 0.5v1c0 0.277 0.223 0.5 0.5 0.5h3c0.277 0 0.5-0.223 0.5-0.5v-1c0-0.277-0.223-0.5-0.5-0.5zm4 3c-0.277 0-0.5 0.223-0.5 0.5v1c0 0.277 0.223 0.5 0.5 0.5h3c0.277 0 0.5-0.223 0.5-0.5v-1c0-0.277-0.223-0.5-0.5-0.5z" style="fill:currentColor"/>
</svg>
