<svg xmlns="http://www.w3.org/2000/svg" width="24" height="24" version="1.1">
 <defs>
  <style id="current-color-scheme" type="text/css">
   .Color Scheme-Text { color:#dfdfdf; } .Color Scheme-Highlight { color:#4285f4; } .Color Scheme-NeutralText { color:#ff9800; } .Color Scheme-PositiveText { color:#4caf50; } .Color Scheme-NegativeText { color:#f44336; }
  </style>
 </defs>
 <g transform="translate(4,4)">
  <path style="fill:currentColor" class="Color Scheme-Text" d="M 5 5 L 5 8 L 6 8 L 6 6 L 8 6 L 8 5 L 5 5 z M 12 5 L 12 6 L 14 6 L 14 14 L 6 14 L 6 12 L 5 12 L 5 15 L 15 15 L 15 5 L 12 5 z"/>
  <path style="opacity:.35;fill:currentColor" class="Color Scheme-Text" d="M 5.5 0 A 5.5 5.5 0 0 0 0 5.5 A 5.5 5.5 0 0 0 5.5 11 A 5.5 5.5 0 0 0 11 5.5 A 5.5 5.5 0 0 0 5.5 0 z M 5.5 2 A 3.5 3.5 0 0 1 9 5.5 A 3.5 3.5 0 0 1 5.5 9 A 3.5 3.5 0 0 1 2 5.5 A 3.5 3.5 0 0 1 5.5 2 z"/>
 </g>
</svg>
