<svg xmlns="http://www.w3.org/2000/svg" width="16" height="16" version="1.1">
 <defs>
  <style id="current-color-scheme" type="text/css">
   .Color Scheme-Text { color:#dfdfdf; } .Color Scheme-Highlight { color:#4285f4; } .Color Scheme-NeutralText { color:#ff9800; } .Color Scheme-PositiveText { color:#4caf50; } .Color Scheme-NegativeText { color:#f44336; }
  </style>
 </defs>
 <path style="fill:currentColor" class="Color Scheme-Text" d="M 6.5,1 C 6,1 6,1.5 6,1.5 V 9.5 C 6,10 6.5,10 6.5,10 H 15.5 C 15.5,10 16,10 16,9.5 V 1.5 C 16,1 15.5,1 15.5,1 Z M 8,4 H 14 V 8 H 8 Z M 1.5,6 C 1.5,6 1,6 1,6.5 V 14.5 C 1,15 1.5,15 1.5,15 H 10.5 C 10.5,15 11,15 11,14.5 V 11 H 9 V 13 H 3 V 9 H 5 V 6 Z"/>
</svg>
