<svg xmlns="http://www.w3.org/2000/svg" width="16" height="16">
 <defs>
  <style id="current-color-scheme" type="text/css">
   .Color Scheme-Text { color:#dfdfdf; } .Color Scheme-Highlight { color:#4285f4; } .Color Scheme-NeutralText { color:#ff9800; } .Color Scheme-PositiveText { color:#4caf50; } .Color Scheme-NegativeText { color:#f44336; }
  </style>
 </defs>
 <path style="fill:currentColor" class="Color Scheme-Text" d="m4.5 3a3.5 5 0 0 0 -3.5 5 3.5 5 0 0 0 3.5 5 3.5 5 0 0 0 3.5 -5 3.5 5 0 0 0 -3.5 -5zm3.5 5a3.5 5 0 0 0 3.5 5 3.5 5 0 0 0 3.5 -5 3.5 5 0 0 0 -3.5 -5 3.5 5 0 0 0 -3.5 5zm-3 0a2 2 0 0 1 2 2 2 2 0 0 1 -2 2 2 2 0 0 1 -2 -2 2 2 0 0 1 2 -2zm7 0a2 2 0 0 1 2 2 2 2 0 0 1 -2 2 2 2 0 0 1 -2 -2 2 2 0 0 1 2 -2z"/>
</svg>
