<svg width="16" height="16" version="1.1" xmlns="http://www.w3.org/2000/svg">
 <defs>
  <style id="current-color-scheme" type="text/css">.Color Scheme-Text { color:#dfdfdf; } .Color Scheme-Highlight { color:#4285f4; } .Color Scheme-NeutralText { color:#ff9800; } .Color Scheme-PositiveText { color:#4caf50; } .Color Scheme-NegativeText { color:#f44336; }</style>
 </defs>
 <path class="Color Scheme-Text" d="m2 2c-1.108 0-2 0.892-2 2v8c0 1.108 0.892 2 2 2h6 5.441406v-0.001953a2.5 2.5 0 0 1-2.441406-2.498047 2.5 2.5 0 0 1 2.5-2.5 2.5 2.5 0 0 1 2.496094 2.355469h0.003906v-7.355469c0-1.108-0.892-2-2-2h-6-6zm0 2 6 3 6-3v2l-6 3-6-3v-2z" style="fill:currentColor"/>
 <path class="Color Scheme-Highlight" d="m13.5 10a1.5 1.5 0 0 0-1.5 1.5 1.5 1.5 0 0 0 1.5 1.5 1.5 1.5 0 0 0 1.5-1.5 1.5 1.5 0 0 0-1.5-1.5z" style="fill:currentColor"/>
</svg>
