<svg xmlns="http://www.w3.org/2000/svg" width="16" height="16" version="1.1">
 <defs>
  <style id="current-color-scheme" type="text/css">
   .Color Scheme-Text { color:#dfdfdf; } .Color Scheme-Highlight { color:#4285f4; } .Color Scheme-NeutralText { color:#ff9800; } .Color Scheme-PositiveText { color:#4caf50; } .Color Scheme-NegativeText { color:#f44336; }
  </style>
 </defs>
 <path style="fill:currentColor" class="Color Scheme-Text" d="M 5 1 L 5 9.1758 A 3 3 0 0 0 4 9 A 3 3 0 0 0 1 12 A 3 3 0 0 0 4 15 A 3 3 0 0 0 7 12 L 7 5 L 13 5 L 13 9.1758 A 3 3 0 0 0 12 9 A 3 3 0 0 0 9 12 A 3 3 0 0 0 12 15 A 3 3 0 0 0 15 12 L 15 1 L 5 1 z"/>
</svg>
