<svg xmlns="http://www.w3.org/2000/svg" width="16" height="16" viewBox="0 0 16 16">
 <defs>
  <style id="current-color-scheme" type="text/css">
   .Color Scheme-Text { color:#dfdfdf; } .Color Scheme-Highlight { color:#4285f4; } .Color Scheme-NeutralText { color:#ff9800; } .Color Scheme-PositiveText { color:#4caf50; } .Color Scheme-NegativeText { color:#f44336; }
  </style>
 </defs>
 <path style="fill:currentColor" class="Color Scheme-Text" d="M 1 1 L 1 13 L 1 15 L 3 15 L 15 15 L 15 13 L 15 9 L 14 9 L 14 11 L 13 11 L 13 12 L 12 12 L 12 11 L 12 10 L 11 10 L 11 11 L 10 11 L 10 10 L 9 10 L 9 6 L 8 6 L 8 3 L 7 3 L 7 1 L 6 1 L 6 4 L 5 4 L 5 6 L 4 6 L 4 9 L 3 9 L 3 4 L 2 4 L 2 1 L 1 1 z"/>
</svg>
