<svg width="22" height="22" version="1.1" xmlns="http://www.w3.org/2000/svg">
 <defs>
  <style id="current-color-scheme" type="text/css">.Color Scheme-Text { color:#444444; } .Color Scheme-Highlight { color:#4285f4; } .Color Scheme-NeutralText { color:#ff9800; } .Color Scheme-PositiveText { color:#4caf50; } .Color Scheme-NegativeText { color:#f44336; }</style>
 </defs>
 <path class="Color Scheme-Text" d="m11 4a7 7 0 0 0-7 7 7 7 0 0 0 7 7 7 7 0 0 0 7-7 7 7 0 0 0-7-7zm0 2a5 5 0 0 1 5 5 5 5 0 0 1-5 5 5 5 0 0 1-5-5 5 5 0 0 1 5-5z" style="fill:currentColor"/>
</svg>
