<svg xmlns="http://www.w3.org/2000/svg" width="16" height="16" version="1.1">
 <defs>
  <style id="current-color-scheme" type="text/css">
   .Color Scheme-Text { color:#444444; } .Color Scheme-Highlight { color:#4285f4; } .Color Scheme-NeutralText { color:#ff9800; } .Color Scheme-PositiveText { color:#4caf50; } .Color Scheme-NegativeText { color:#f44336; }
  </style>
 </defs>
 <path style="fill:currentColor;opacity:.35" class="Color Scheme-Text" d="M 13,5 A 5,5 0 0 1 8,10 5,5 0 0 1 3,5 5,5 0 0 1 8,0 5,5 0 0 1 13,5 Z"/>
 <path style="opacity:0.7;fill:currentColor" class="Color Scheme-Text" d="M 8,0 A 5,5 0 0 0 3,5 5,5 0 0 0 8,10 5,5 0 0 0 13,5 5,5 0 0 0 8,0 Z M 8,1 A 4,4 0 0 1 12,5 4,4 0 0 1 8,9 4,4 0 0 1 4,5 4,4 0 0 1 8,1 Z"/>
 <path style="fill:currentColor" class="Color Scheme-Text" d="M 0,4 H 16 V 6 H 0 Z"/>
</svg>
