<svg xmlns="http://www.w3.org/2000/svg" width="16" height="16" version="1.1">
 <defs>
  <style id="current-color-scheme" type="text/css">
   .Color Scheme-Text { color:#444444; } .Color Scheme-Highlight { color:#4285f4; } .Color Scheme-NeutralText { color:#ff9800; } .Color Scheme-PositiveText { color:#4caf50; } .Color Scheme-NegativeText { color:#f44336; }
  </style>
 </defs>
 <g transform="matrix(1,0,-0.21338,1,2.1911,0)">
  <path style="fill:currentColor" class="Color Scheme-Text" d="M 3,3 V 5 H 9 C 9,5 10,5 10,6 V 7 H 5 C 2,7 2,10 2,10 2,10 2,13 5,13 H 11 C 11,13 12,13 12,12 V 6 C 12,3 9,3 9,3 Z M 5,9 H 10 V 11 H 5 C 4,11 4,10 4,10 4,10 4,9 5,9 Z"/>
 </g>
</svg>
