<svg xmlns="http://www.w3.org/2000/svg" width="16" height="16" version="1.1">
 <defs>
  <style id="current-color-scheme" type="text/css">
   .Color Scheme-Text { color:#444444; } .Color Scheme-Highlight { color:#4285f4; } .Color Scheme-NeutralText { color:#ff9800; } .Color Scheme-PositiveText { color:#4caf50; } .Color Scheme-NegativeText { color:#f44336; }
  </style>
 </defs>
 <path style="opacity:.35;fill:currentColor" class="Color Scheme-Text" d="M 11,5.5 A 5.5,5.5 0 0 1 5.5,11 5.5,5.5 0 0 1 0,5.5 5.5,5.5 0 0 1 5.5,0 5.5,5.5 0 0 1 11,5.5 Z M 5,5 H 15 V 15 H 5 Z"/>
 <path style="fill:currentColor" class="Color Scheme-Text" d="M 5 5 L 5 10.975 A 5.5 5.5 0 0 0 5.5 11 A 5.5 5.5 0 0 0 11 5.5 A 5.5 5.5 0 0 0 10.973 5 L 5 5 z"/>
</svg>
