<svg xmlns="http://www.w3.org/2000/svg" width="16" height="16" version="1.1">
 <defs>
  <style id="current-color-scheme" type="text/css">
   .Color Scheme-Text { color:#444444; } .Color Scheme-Highlight { color:#4285f4; } .Color Scheme-NeutralText { color:#ff9800; } .Color Scheme-PositiveText { color:#4caf50; } .Color Scheme-NegativeText { color:#f44336; }
  </style>
 </defs>
 <path style="fill:currentColor" class="Color Scheme-Text" d="M 5,5 V 8.959 A 3.5,3.5 0 0 0 5.5,9 3.5,3.5 0 0 0 9,5.5 3.5,3.5 0 0 0 8.9609,5 Z M 10.973,5 A 5.5,5.5 0 0 1 11,5.5 5.5,5.5 0 0 1 5.5,11 5.5,5.5 0 0 1 5,10.975 V 15 H 15 V 5 Z"/>
 <path style="opacity:.35;fill:currentColor" class="Color Scheme-Text" d="M 5.5 0 A 5.5 5.5 0 0 0 0 5.5 A 5.5 5.5 0 0 0 5 10.975 L 5 5 L 10.973 5 A 5.5 5.5 0 0 0 5.5 0 z"/>
</svg>
