<svg xmlns="http://www.w3.org/2000/svg" width="16" height="16" version="1.1">
 <defs>
  <style id="current-color-scheme" type="text/css">
   .Color Scheme-Text { color:#444444; } .Color Scheme-Highlight { color:#4285f4; } .Color Scheme-NeutralText { color:#ff9800; } .Color Scheme-PositiveText { color:#4caf50; } .Color Scheme-NegativeText { color:#f44336; }
  </style>
 </defs>
 <path style="fill:currentColor" class="Color Scheme-Text" d="M 8,2 A 1,1 0 0 0 7,3 1,1 0 0 0 8,4 4,4 0 0 1 12,8 H 10 L 13,12 16,8 H 14 A 6,6 0 0 0 8,2 Z M 3,4 0,8 H 2 A 6,6 0 0 0 8,14 1,1 0 0 0 9,13 1,1 0 0 0 8,12 4,4 0 0 1 4,8 H 6 Z"/>
</svg>
