<svg xmlns="http://www.w3.org/2000/svg" width="24" height="24" version="1.1">
 <defs>
  <style id="current-color-scheme" type="text/css">
   .Color Scheme-Text { color:#444444; } .Color Scheme-Highlight { color:#4285f4; } .Color Scheme-NeutralText { color:#ff9800; } .Color Scheme-PositiveText { color:#4caf50; } .Color Scheme-NegativeText { color:#f44336; }
  </style>
 </defs>
 <path style="fill:currentColor" class="Color Scheme-Text" d="m 10,16 a 2,2 0 0 1 -2,2 2,2 0 0 1 -2,-2 2,2 0 0 1 2,-2 2,2 0 0 1 2,2 z"/>
 <path style="fill:currentColor" class="Color Scheme-Text" d="m 6,10 v 2 a 6,6 0 0 1 6,6 h 2 A 8,8 0 0 0 6,10 Z"/>
 <path style="fill:currentColor" class="Color Scheme-Text" d="M 6,6 V 8.0508 A 11,11 0 0 1 15.945,18 H 18 A 12,12 0 0 0 14.484,9.5156 12,12 0 0 0 6,6 Z"/>
</svg>
