<svg xmlns="http://www.w3.org/2000/svg" width="16" height="16" version="1.1">
 <defs>
  <style id="current-color-scheme" type="text/css">
   .Color Scheme-Text { color:#444444; } .Color Scheme-Highlight { color:#4285f4; } .Color Scheme-NeutralText { color:#ff9800; } .Color Scheme-PositiveText { color:#4caf50; } .Color Scheme-NegativeText { color:#f44336; }
  </style>
 </defs>
 <path style="opacity:.35;fill:currentColor" class="Color Scheme-Text" d="M 2,1 C 2,1 1,1 1,2 V 7 C 1,6 2,6 2,6 H 7 L 9,8 H 14 C 14,8 15,8 15,9 V 4 C 15,3 14,3 14,3 H 9 L 7,1 Z"/>
 <path style="fill:currentColor" class="Color Scheme-Text" d="M 2,7 C 2,7 1,7 1,8 V 13 C 1,13 1,14 2,14 H 14 C 14,14 15,14 15,13 V 10 C 15,9 14,9 14,9 H 9 L 7,7 Z"/>
</svg>
