<svg xmlns="http://www.w3.org/2000/svg" width="22" height="22" version="1.1">
 <defs>
  <style id="current-color-scheme" type="text/css">
   .Color Scheme-Text { color:#444444; } .Color Scheme-Highlight { color:#4285f4; } .Color Scheme-NeutralText { color:#ff9800; } .Color Scheme-PositiveText { color:#4caf50; } .Color Scheme-NegativeText { color:#f44336; }
  </style>
 </defs>
 <path style="fill:currentColor" class="Color Scheme-Text" d="M 9.5,4 A 5.5,5.5 0 0 0 4,9.5 5.5,5.5 0 0 0 9.5,15 5.5,5.5 0 0 0 12.6172,14.031 l 3.6618,3.662 A 1,1 0 0 0 17,18 1,1 0 0 0 18,17 1,1 0 0 0 17.697,16.283 l -3.67,-3.6697 A 5.5,5.5 0 0 0 15,9.5 5.5,5.5 0 0 0 9.5,4 Z m 0,2 A 3.5,3.5 0 0 1 13,9.5 3.5,3.5 0 0 1 9.5,13 3.5,3.5 0 0 1 6,9.5 3.5,3.5 0 0 1 9.5,6 Z"/>
</svg>
