<svg width="24" height="24" version="1.1" xmlns="http://www.w3.org/2000/svg">
 <defs>
  <style id="current-color-scheme" type="text/css">.Color Scheme-Text { color:#444444; } .Color Scheme-Highlight { color:#4285f4; } .Color Scheme-NeutralText { color:#ff9800; } .Color Scheme-PositiveText { color:#4caf50; } .Color Scheme-NegativeText { color:#f44336; }</style>
 </defs>
 <path class="Color Scheme-Text" d="m4 5s-1 0-1 1v11c0 1 1 1 1 1h3l1 1h6v-2h-5l-1-1h-3v-9h1v2h1v-2h1v2h1v-2h1v2h1v-2h1v2h1v-2h1v2h1v-2h1v2h1v-2h1v5c0.771566 0 1.471447 0.30085 2 0.789063v-6.789063c0-1-1-1-1-1zm14 8c-1.108 0-2 0.91125-2 2.03125v0.96875h-1v4h6v-4h-1v-0.96875c0-1.12-0.892-2.03125-2-2.03125zm0 1c0.554 0 1 0.442 1 1v1h-2v-1c0-0.558 0.446-1 1-1z" style="fill:currentColor"/>
</svg>
