<svg xmlns="http://www.w3.org/2000/svg" width="24" height="24" version="1.1">
 <defs>
  <style id="current-color-scheme" type="text/css">
   .Color Scheme-Text { color:#444444; } .Color Scheme-Highlight { color:#4285f4; } .Color Scheme-NeutralText { color:#ff9800; } .Color Scheme-PositiveText { color:#4caf50; } .Color Scheme-NegativeText { color:#f44336; }
  </style>
 </defs>
 <g transform="translate(0 -1028.4)">
  <path style="fill:currentColor" class="Color Scheme-Text" d="m11 1032.4a7 8 0 0 0 -7 8 7 8 0 0 0 7 8 7 8 0 0 0 3.7949 -1.2852l-1.2812-1.5371a5 6 0 0 1 -2.514 0.8 5 6 0 0 1 -5 -6 5 6 0 0 1 5 -6 5 6 0 0 1 4.2383 2.8242l2.7422 2.7422a7 8 0 0 0 -6.98 -7.5zm3 5 2 4.5-3 1.5 5 6-2-5 3-2-5-5z"/>
 </g>
</svg>
