<svg xmlns="http://www.w3.org/2000/svg" width="22" height="22" version="1.1">
 <defs>
  <style id="current-color-scheme" type="text/css">
   .Color Scheme-Text { color:#444444; } .Color Scheme-Highlight { color:#4285f4; } .Color Scheme-NeutralText { color:#ff9800; } .Color Scheme-PositiveText { color:#4caf50; } .Color Scheme-NegativeText { color:#f44336; }
  </style>
 </defs>
 <path style="fill:currentColor" class="Color Scheme-Text" d="M 9,15 A 2,2 0 0 1 7,17 2,2 0 0 1 5,15 2,2 0 0 1 7,13 2,2 0 0 1 9,15 Z"/>
 <path style="fill:currentColor" class="Color Scheme-Text" d="m 5,9 v 2 a 6,6 0 0 1 6,6 h 2 A 8,8 0 0 0 5,9 Z"/>
 <path style="fill:currentColor" class="Color Scheme-Text" d="M 5,5 V 7.0508 A 11,11 0 0 1 14.945,17 H 17 A 12,12 0 0 0 13.484,8.5156 12,12 0 0 0 5,5 Z"/>
</svg>
