<svg xmlns="http://www.w3.org/2000/svg" width="22" height="22" version="1.1">
 <defs>
  <style id="current-color-scheme" type="text/css">
   .Color Scheme-Text { color:#444444; } .Color Scheme-Highlight { color:#4285f4; } .Color Scheme-NeutralText { color:#ff9800; } .Color Scheme-PositiveText { color:#4caf50; } .Color Scheme-NegativeText { color:#f44336; }
  </style>
 </defs>
 <path style="fill:currentColor" class="Color Scheme-Text" d="M 8,11.5 A 1.5,1.5 0 0 1 6.5,13 1.5,1.5 0 0 1 5,11.5 1.5,1.5 0 0 1 6.5,10 1.5,1.5 0 0 1 8,11.5 Z"/>
 <path style="fill:currentColor" class="Color Scheme-Text" d="M 12,11.5 A 1.5,1.5 0 0 1 10.5,13 1.5,1.5 0 0 1 9,11.5 1.5,1.5 0 0 1 10.5,10 1.5,1.5 0 0 1 12,11.5 Z"/>
 <path style="fill:currentColor" class="Color Scheme-Text" d="M 16,11.5 A 1.5,1.5 0 0 1 14.5,13 1.5,1.5 0 0 1 13,11.5 1.5,1.5 0 0 1 14.5,10 1.5,1.5 0 0 1 16,11.5 Z"/>
</svg>
