<svg width="16" height="16" version="1.1" xmlns="http://www.w3.org/2000/svg">
 <defs>
  <style id="current-color-scheme" type="text/css">.Color Scheme-Text { color:#444444; } .Color Scheme-Highlight { color:#4285f4; } .Color Scheme-NeutralText { color:#ff9800; } .Color Scheme-PositiveText { color:#4caf50; } .Color Scheme-NegativeText { color:#f44336; }</style>
 </defs>
 <path class="Color Scheme-Text" d="m7.5 1c-0.831 0-1.5 0.689717-1.5 1.5458985v5.908203c0 0.856182 0.669 1.5458985 1.5 1.5458985h5c0.831 0 1.5-0.6897165 1.5-1.5458985v-5.908203c0-0.8561815-0.669-1.5458985-1.5-1.5458985zm-0.5 2h6v1h-6zm0 2h6v1h-6zm0 2h4v1h-4z" style="fill:currentColor;opacity:.35"/>
 <path class="Color Scheme-Text" d="m3.5 6c-0.8310001 0-1.5 0.689717-1.5 1.5458985v5.9082025c0 0.856182 0.6689999 1.545899 1.5 1.545899h5c0.831 0 1.5-0.689717 1.5-1.545899v-5.9082025c0-0.8561815-0.669-1.5458985-1.5-1.5458985zm-0.5 2h6v1h-6zm0 2h6v1h-6zm0 2h4v1h-4z" style="fill:currentColor"/>
</svg>
