<svg xmlns="http://www.w3.org/2000/svg" width="22" height="22" version="1.1">
 <defs>
  <style id="current-color-scheme" type="text/css">
   .Color Scheme-Text { color:#444444; } .Color Scheme-Highlight { color:#4285f4; } .Color Scheme-NeutralText { color:#ff9800; } .Color Scheme-PositiveText { color:#4caf50; } .Color Scheme-NegativeText { color:#f44336; }
  </style>
 </defs>
 <path style="opacity:0.35;fill:currentColor" class="Color Scheme-Text" d="m 13,3 v 2 h -3 v 3 h 7.889 L 18.5,7.5 Z"/>
 <path style="opacity:0.35;fill:currentColor" class="Color Scheme-Text" d="m 4,14 5,4 v -2 h 3 v -2 z"/>
 <path style="fill:currentColor" class="Color Scheme-Text" d="M 8,11 A 2,2 0 0 1 6,13 2,2 0 0 1 4,11 2,2 0 0 1 6,9 2,2 0 0 1 8,11 Z"/>
 <path style="fill:currentColor" class="Color Scheme-Text" d="m 13,11 a 2,2 0 0 1 -2,2 2,2 0 0 1 -2,-2 2,2 0 0 1 2,-2 2,2 0 0 1 2,2 z"/>
 <path style="fill:currentColor" class="Color Scheme-Text" d="m 18,11 a 2,2 0 0 1 -2,2 2,2 0 0 1 -2,-2 2,2 0 0 1 2,-2 2,2 0 0 1 2,2 z"/>
</svg>
