<svg xmlns="http://www.w3.org/2000/svg" width="24" height="24" version="1.1">
 <defs>
  <style id="current-color-scheme" type="text/css">
   .Color Scheme-Text { color:#444444; } .Color Scheme-Highlight { color:#4285f4; } .Color Scheme-NeutralText { color:#ff9800; } .Color Scheme-PositiveText { color:#4caf50; } .Color Scheme-NegativeText { color:#f44336; }
  </style>
 </defs>
 <path style="fill:currentColor" class="Color Scheme-Text" d="m 12,7 c -6,0 -8,5 -8,5 0,0 2,5 8,5 6,0 8,-5 8,-5 0,0 -2,-5 -8,-5 z m 0,2 a 3,3 0 0 1 3,3 3,3 0 0 1 -3,3 3,3 0 0 1 -3,-3 3,3 0 0 1 3,-3 z m 0,2 a 1,1 0 0 0 -1,1 1,1 0 0 0 1,1 1,1 0 0 0 1,-1 1,1 0 0 0 -1,-1 z"/>
</svg>
