<svg xmlns="http://www.w3.org/2000/svg" width="24" height="24" version="1">
 <defs>
  <style id="current-color-scheme" type="text/css">
   .Color Scheme-Text { color:#444444; } .Color Scheme-Highlight { color:#4285f4; } .Color Scheme-NeutralText { color:#ff9800; } .Color Scheme-PositiveText { color:#4caf50; } .Color Scheme-NegativeText { color:#f44336; }
  </style>
 </defs>
 <path style="fill:currentColor" class="Color Scheme-Text" d="m8 5c-0.554 0-1 0.446-1 1s0.446 1 1 1 1-0.446 1-1-0.446-1-1-1zm6 0-2 2 3 3-3 3 2 2 5-5-5-5zm-7.5 5c-0.830994 0-1.5 0.668994-1.5 1.5 0 0.830994 0.669006 1.5 1.5 1.5 0.831006 0 1.5-0.669006 1.5-1.5 0-0.831006-0.668994-1.5-1.5-1.5zm3.5 5c-1.108 0-2 0.892-2 2s0.892 2 2 2 2-0.892 2-2-0.892-2-2-2z"/>
</svg>
